<mxfile host="Electron" modified="2023-05-22T08:02:33.389Z" agent="Mozilla/5.0 (Windows NT 10.0; Win64; x64) AppleWebKit/537.36 (KHTML, like Gecko) draw.io/21.2.8 Chrome/112.0.5615.165 Electron/24.2.0 Safari/537.36" etag="n_luQ_pd6wOTQLaF2Pqn" version="21.2.8" type="device">
  <diagram name="Page-1" id="gpmqUwnxsCiSCp6jCpT3">
    <mxGraphModel dx="1036" dy="605" grid="1" gridSize="10" guides="1" tooltips="1" connect="1" arrows="1" fold="1" page="1" pageScale="1" pageWidth="850" pageHeight="1100" math="0" shadow="0">
      <root>
        <mxCell id="0" />
        <mxCell id="1" parent="0" />
        <mxCell id="iwMUExLdxilYCTdlbrGo-6" style="edgeStyle=orthogonalEdgeStyle;rounded=0;orthogonalLoop=1;jettySize=auto;html=1;exitX=1;exitY=0.5;exitDx=0;exitDy=0;" parent="1" source="EFFxB-erFO54Bsi8wxK9-1" target="iwMUExLdxilYCTdlbrGo-23" edge="1">
          <mxGeometry relative="1" as="geometry">
            <mxPoint x="520" y="120" as="targetPoint" />
            <mxPoint x="400" y="120" as="sourcePoint" />
          </mxGeometry>
        </mxCell>
        <mxCell id="iwMUExLdxilYCTdlbrGo-4" style="rounded=0;orthogonalLoop=1;jettySize=auto;html=1;exitX=1;exitY=0.5;exitDx=0;exitDy=0;entryX=0;entryY=0;entryDx=0;entryDy=0;" parent="1" source="iwMUExLdxilYCTdlbrGo-2" target="EFFxB-erFO54Bsi8wxK9-1" edge="1">
          <mxGeometry relative="1" as="geometry">
            <mxPoint x="331.71572875253787" y="91.71572875253787" as="targetPoint" />
          </mxGeometry>
        </mxCell>
        <mxCell id="iwMUExLdxilYCTdlbrGo-2" value="" style="ellipse;whiteSpace=wrap;html=1;aspect=fixed;" parent="1" vertex="1">
          <mxGeometry x="160" y="20" width="80" height="80" as="geometry" />
        </mxCell>
        <mxCell id="iwMUExLdxilYCTdlbrGo-5" style="rounded=0;orthogonalLoop=1;jettySize=auto;html=1;exitX=1;exitY=0.5;exitDx=0;exitDy=0;entryX=0;entryY=1;entryDx=0;entryDy=0;" parent="1" source="iwMUExLdxilYCTdlbrGo-3" target="EFFxB-erFO54Bsi8wxK9-1" edge="1">
          <mxGeometry relative="1" as="geometry">
            <mxPoint x="331.71572875253787" y="148.28427124746213" as="targetPoint" />
          </mxGeometry>
        </mxCell>
        <mxCell id="iwMUExLdxilYCTdlbrGo-3" value="" style="ellipse;whiteSpace=wrap;html=1;aspect=fixed;" parent="1" vertex="1">
          <mxGeometry x="160" y="140" width="80" height="80" as="geometry" />
        </mxCell>
        <mxCell id="iwMUExLdxilYCTdlbrGo-19" style="edgeStyle=entityRelationEdgeStyle;rounded=0;orthogonalLoop=1;jettySize=auto;html=1;exitX=1;exitY=0.5;exitDx=0;exitDy=0;" parent="1" source="iwMUExLdxilYCTdlbrGo-11" target="iwMUExLdxilYCTdlbrGo-2" edge="1">
          <mxGeometry relative="1" as="geometry" />
        </mxCell>
        <mxCell id="iwMUExLdxilYCTdlbrGo-11" value="&lt;font face=&quot;Times New Roman&quot; style=&quot;font-size: 24px;&quot;&gt;&lt;i&gt;x&lt;/i&gt;&lt;sub&gt;1&lt;/sub&gt;&lt;/font&gt;" style="text;html=1;strokeColor=none;fillColor=none;align=center;verticalAlign=middle;whiteSpace=wrap;rounded=0;" parent="1" vertex="1">
          <mxGeometry x="70" y="45" width="30" height="30" as="geometry" />
        </mxCell>
        <mxCell id="iwMUExLdxilYCTdlbrGo-20" style="edgeStyle=entityRelationEdgeStyle;rounded=0;orthogonalLoop=1;jettySize=auto;html=1;exitX=1;exitY=0.5;exitDx=0;exitDy=0;entryX=0;entryY=0.5;entryDx=0;entryDy=0;" parent="1" source="iwMUExLdxilYCTdlbrGo-12" target="iwMUExLdxilYCTdlbrGo-3" edge="1">
          <mxGeometry relative="1" as="geometry" />
        </mxCell>
        <mxCell id="iwMUExLdxilYCTdlbrGo-12" value="&lt;font face=&quot;Times New Roman&quot; style=&quot;font-size: 24px;&quot;&gt;&lt;i&gt;x&lt;/i&gt;&lt;sub&gt;2&lt;/sub&gt;&lt;/font&gt;" style="text;html=1;strokeColor=none;fillColor=none;align=center;verticalAlign=middle;whiteSpace=wrap;rounded=0;" parent="1" vertex="1">
          <mxGeometry x="70" y="165" width="30" height="30" as="geometry" />
        </mxCell>
        <mxCell id="iwMUExLdxilYCTdlbrGo-14" value="" style="endArrow=none;html=1;rounded=0;edgeStyle=orthogonalEdgeStyle;curved=1;" parent="1" edge="1">
          <mxGeometry width="50" height="50" relative="1" as="geometry">
            <mxPoint x="215" y="195" as="sourcePoint" />
            <mxPoint x="185" y="195" as="targetPoint" />
            <Array as="points">
              <mxPoint x="205" y="195" />
              <mxPoint x="205" y="165" />
              <mxPoint x="195" y="165" />
              <mxPoint x="195" y="195" />
            </Array>
          </mxGeometry>
        </mxCell>
        <mxCell id="iwMUExLdxilYCTdlbrGo-18" value="" style="endArrow=none;html=1;rounded=0;edgeStyle=orthogonalEdgeStyle;curved=1;" parent="1" edge="1">
          <mxGeometry width="50" height="50" relative="1" as="geometry">
            <mxPoint x="215" y="75" as="sourcePoint" />
            <mxPoint x="185" y="75" as="targetPoint" />
            <Array as="points">
              <mxPoint x="205" y="75" />
              <mxPoint x="205" y="45" />
              <mxPoint x="195" y="45" />
              <mxPoint x="195" y="75" />
            </Array>
          </mxGeometry>
        </mxCell>
        <mxCell id="iwMUExLdxilYCTdlbrGo-21" value="&lt;font face=&quot;Times New Roman&quot; style=&quot;font-size: 24px;&quot;&gt;w&lt;sub&gt;1&lt;/sub&gt;=1&lt;/font&gt;" style="text;html=1;strokeColor=none;fillColor=none;align=center;verticalAlign=middle;whiteSpace=wrap;rounded=0;" parent="1" vertex="1">
          <mxGeometry x="280" y="45" width="60" height="30" as="geometry" />
        </mxCell>
        <mxCell id="iwMUExLdxilYCTdlbrGo-22" value="&lt;font face=&quot;Times New Roman&quot; style=&quot;font-size: 24px;&quot;&gt;w&lt;sub&gt;2&lt;/sub&gt;=1&lt;/font&gt;" style="text;html=1;strokeColor=none;fillColor=none;align=center;verticalAlign=middle;whiteSpace=wrap;rounded=0;" parent="1" vertex="1">
          <mxGeometry x="280" y="165" width="60" height="30" as="geometry" />
        </mxCell>
        <mxCell id="iwMUExLdxilYCTdlbrGo-23" value="&lt;font face=&quot;Times New Roman&quot; style=&quot;font-size: 24px;&quot;&gt;&lt;i&gt;p&lt;/i&gt;(&lt;i&gt;x&lt;/i&gt;&lt;sub&gt;1&lt;/sub&gt;,x&lt;sub&gt;2&lt;/sub&gt;)&lt;/font&gt;" style="text;html=1;strokeColor=none;fillColor=none;align=center;verticalAlign=middle;whiteSpace=wrap;rounded=0;" parent="1" vertex="1">
          <mxGeometry x="459" y="105" width="90" height="30" as="geometry" />
        </mxCell>
        <mxCell id="EFFxB-erFO54Bsi8wxK9-1" value="" style="shape=sumEllipse;perimeter=ellipsePerimeter;whiteSpace=wrap;html=1;backgroundOutline=1;" vertex="1" parent="1">
          <mxGeometry x="320" y="80" width="80" height="80" as="geometry" />
        </mxCell>
      </root>
    </mxGraphModel>
  </diagram>
</mxfile>
